<mxfile host="app.diagrams.net" modified="2024-03-28T09:41:10.754Z" agent="Mozilla/5.0 (Windows NT 10.0; Win64; x64) AppleWebKit/537.36 (KHTML, like Gecko) Chrome/122.0.0.0 Safari/537.36 Edg/122.0.0.0" etag="dD7BkAibrIoBBm5HchVU" version="24.2.0" type="github">
  <diagram name="第 1 页" id="vshPCFCdqvHP2fLDASBx">
    <mxGraphModel dx="3867" dy="2018" grid="1" gridSize="10" guides="1" tooltips="1" connect="1" arrows="1" fold="1" page="1" pageScale="1" pageWidth="827" pageHeight="1169" math="0" shadow="0">
      <root>
        <mxCell id="0" />
        <mxCell id="1" parent="0" />
        <mxCell id="73l6ZmAT1cNKYX8VZmuh-1" value="" style="ellipse;whiteSpace=wrap;html=1;aspect=fixed;fontSize=18;fillColor=#ff8987;strokeColor=#ff8987;opacity=30;" vertex="1" parent="1">
          <mxGeometry x="782.26" y="260.00000000000034" width="629.75" height="629.75" as="geometry" />
        </mxCell>
        <mxCell id="73l6ZmAT1cNKYX8VZmuh-2" value="" style="ellipse;whiteSpace=wrap;html=1;aspect=fixed;fontSize=18;fillColor=#ffcd5a;strokeColor=#ffcd5a;opacity=60;" vertex="1" parent="1">
          <mxGeometry x="865.45" y="348.5200000000003" width="463.36" height="463.36" as="geometry" />
        </mxCell>
        <mxCell id="73l6ZmAT1cNKYX8VZmuh-3" value="" style="ellipse;whiteSpace=wrap;html=1;aspect=fixed;fontSize=18;fillColor=#8db9ff;strokeColor=none;opacity=40;" vertex="1" parent="1">
          <mxGeometry x="945.81" y="423.56000000000006" width="302.64" height="302.64" as="geometry" />
        </mxCell>
        <mxCell id="73l6ZmAT1cNKYX8VZmuh-4" value="&lt;span style=&quot;background-color: rgb(248 , 249 , 250)&quot;&gt;Reconstructing&lt;br&gt;&lt;br&gt;&lt;/span&gt;" style="shape=dataStorage;whiteSpace=wrap;html=1;fixedSize=1;fontSize=18;rotation=-90;size=30;horizontal=0;strokeColor=default;strokeWidth=1;verticalAlign=middle;" vertex="1" parent="1">
          <mxGeometry x="1069.1299999999999" y="613.1300000000001" width="56" height="170" as="geometry" />
        </mxCell>
        <mxCell id="73l6ZmAT1cNKYX8VZmuh-5" value="富语义城市模型" style="ellipse;whiteSpace=wrap;html=1;aspect=fixed;fontSize=18;fillColor=#3ce4bb;strokeColor=none;opacity=40;fontStyle=1" vertex="1" parent="1">
          <mxGeometry x="999.1299999999999" y="485.3800000000001" width="186" height="186" as="geometry" />
        </mxCell>
        <mxCell id="73l6ZmAT1cNKYX8VZmuh-6" value="Merging&lt;br&gt;&amp;nbsp;" style="shape=dataStorage;whiteSpace=wrap;html=1;fixedSize=1;fontSize=18;rotation=-180;size=30;horizontal=0;strokeColor=default;strokeWidth=1;" vertex="1" parent="1">
          <mxGeometry x="1140.74" y="513.3800000000001" width="61.5" height="130" as="geometry" />
        </mxCell>
        <mxCell id="73l6ZmAT1cNKYX8VZmuh-7" value="&lt;span style=&quot;border-color: var(--border-color); background-color: rgb(248, 249, 250);&quot;&gt;Extracting&lt;br style=&quot;border-color: var(--border-color);&quot;&gt;&lt;/span&gt;&lt;div&gt;&lt;span style=&quot;border-color: var(--border-color); background-color: rgb(248, 249, 250);&quot;&gt;&lt;br&gt;&lt;/span&gt;&lt;/div&gt;" style="shape=dataStorage;whiteSpace=wrap;html=1;fixedSize=1;fontSize=18;rotation=90;size=30;horizontal=0;strokeColor=default;strokeWidth=1;" vertex="1" parent="1">
          <mxGeometry x="1067.63" y="367.6300000000002" width="59" height="170" as="geometry" />
        </mxCell>
        <mxCell id="73l6ZmAT1cNKYX8VZmuh-8" value="Semantic infomatition" style="rounded=1;whiteSpace=wrap;html=1;fontSize=18;strokeColor=default;strokeWidth=1;" vertex="1" parent="1">
          <mxGeometry x="1034.8799999999999" y="505.49" width="100" height="49.03" as="geometry" />
        </mxCell>
        <mxCell id="73l6ZmAT1cNKYX8VZmuh-9" value="Appearance" style="rounded=1;whiteSpace=wrap;html=1;fontSize=18;strokeColor=default;strokeWidth=1;" vertex="1" parent="1">
          <mxGeometry x="1034.8799999999999" y="603.73" width="102" height="27.75" as="geometry" />
        </mxCell>
        <mxCell id="73l6ZmAT1cNKYX8VZmuh-10" value="&lt;span style=&quot;text-align: center&quot;&gt;卫星影像&lt;/span&gt;" style="text;whiteSpace=wrap;html=1;fontSize=18;" vertex="1" parent="1">
          <mxGeometry x="839.49" y="387.3800000000002" width="74" height="40" as="geometry" />
        </mxCell>
        <mxCell id="73l6ZmAT1cNKYX8VZmuh-11" value="&lt;div style=&quot;text-align: center&quot;&gt;&lt;span&gt;&lt;font face=&quot;helvetica&quot;&gt;地形&lt;/font&gt;&lt;/span&gt;&lt;/div&gt;" style="text;whiteSpace=wrap;html=1;fontSize=18;" vertex="1" parent="1">
          <mxGeometry x="785.52" y="543.2700000000004" width="50" height="29" as="geometry" />
        </mxCell>
        <mxCell id="73l6ZmAT1cNKYX8VZmuh-12" value="&lt;div style=&quot;text-align: center&quot;&gt;&lt;span&gt;&lt;font face=&quot;helvetica&quot;&gt;倾斜模型&lt;/font&gt;&lt;/span&gt;&lt;/div&gt;" style="text;whiteSpace=wrap;html=1;fontSize=18;" vertex="1" parent="1">
          <mxGeometry x="790.88" y="620.3800000000001" width="100" height="40" as="geometry" />
        </mxCell>
        <mxCell id="73l6ZmAT1cNKYX8VZmuh-13" value="&lt;span style=&quot;font-family: helvetica; font-size: 18px; font-style: normal; font-weight: 400; letter-spacing: normal; text-align: center; text-indent: 0px; text-transform: none; word-spacing: 0px; display: inline; float: none;&quot;&gt;矢量&lt;/span&gt;" style="text;whiteSpace=wrap;html=1;fontSize=18;fillColor=none;fontColor=default;labelBackgroundColor=none;" vertex="1" parent="1">
          <mxGeometry x="801.63" y="461.3800000000002" width="55" height="32" as="geometry" />
        </mxCell>
        <mxCell id="73l6ZmAT1cNKYX8VZmuh-14" value="&lt;div style=&quot;text-align: center&quot;&gt;&lt;span&gt;&lt;font face=&quot;helvetica&quot;&gt;地表覆盖&lt;/font&gt;&lt;/span&gt;&lt;/div&gt;" style="text;whiteSpace=wrap;html=1;fontSize=18;" vertex="1" parent="1">
          <mxGeometry x="885.88" y="783.5" width="100" height="40" as="geometry" />
        </mxCell>
        <mxCell id="73l6ZmAT1cNKYX8VZmuh-15" value="&lt;span style=&quot;font-size: 18px; font-style: normal; letter-spacing: normal; text-align: left; text-indent: 0px; text-transform: none; word-spacing: 0px; font-family: helvetica; display: inline; float: none;&quot;&gt;基础&lt;br&gt;&lt;/span&gt;&lt;span style=&quot;font-size: 18px; font-style: normal; letter-spacing: normal; text-align: left; text-indent: 0px; text-transform: none; word-spacing: 0px; font-family: helvetica; display: inline; float: none;&quot;&gt;地理&lt;br&gt;&lt;/span&gt;&lt;span style=&quot;font-size: 18px; font-style: normal; letter-spacing: normal; text-align: left; text-indent: 0px; text-transform: none; word-spacing: 0px; font-family: helvetica; display: inline; float: none;&quot;&gt;数据&lt;/span&gt;" style="text;whiteSpace=wrap;html=1;fontSize=18;fillColor=none;fontColor=default;labelBackgroundColor=none;fontStyle=1" vertex="1" parent="1">
          <mxGeometry x="1034.8799999999999" y="273.02" width="40" height="75.5" as="geometry" />
        </mxCell>
        <mxCell id="73l6ZmAT1cNKYX8VZmuh-16" value="&lt;span style=&quot;text-align: right&quot;&gt;多源&lt;br&gt;&lt;/span&gt;&lt;span style=&quot;text-align: right&quot;&gt;公开&lt;br&gt;&lt;/span&gt;&lt;span style=&quot;text-align: right&quot;&gt;数据&lt;/span&gt;" style="text;whiteSpace=wrap;html=1;fontSize=18;fontStyle=1" vertex="1" parent="1">
          <mxGeometry x="1116.26" y="273.02" width="40" height="75.5" as="geometry" />
        </mxCell>
        <mxCell id="73l6ZmAT1cNKYX8VZmuh-17" value="&lt;span style=&quot;font-family: helvetica; font-size: 18px; font-style: normal; font-weight: 400; letter-spacing: normal; text-align: center; text-indent: 0px; text-transform: none; word-spacing: 0px; display: inline; float: none;&quot;&gt;公开报道&lt;/span&gt;" style="text;whiteSpace=wrap;html=1;fontSize=18;fillColor=none;fontColor=default;labelBackgroundColor=none;" vertex="1" parent="1">
          <mxGeometry x="1257.3799999999999" y="373.2700000000003" width="100" height="40" as="geometry" />
        </mxCell>
        <mxCell id="73l6ZmAT1cNKYX8VZmuh-18" value="&lt;span style=&quot;font-family: helvetica; font-size: 18px; font-style: normal; font-weight: 400; letter-spacing: normal; text-align: center; text-indent: 0px; text-transform: none; word-spacing: 0px; display: inline; float: none;&quot;&gt;网络&lt;br&gt;图片&lt;/span&gt;" style="text;whiteSpace=wrap;html=1;fontSize=18;fillColor=none;fontColor=default;labelBackgroundColor=none;" vertex="1" parent="1">
          <mxGeometry x="1334.3799999999999" y="557.8800000000001" width="54.36" height="34" as="geometry" />
        </mxCell>
        <mxCell id="73l6ZmAT1cNKYX8VZmuh-19" value="&lt;div style=&quot;text-align: center&quot;&gt;&lt;font face=&quot;helvetica&quot;&gt;……&lt;/font&gt;&lt;/div&gt;" style="text;whiteSpace=wrap;html=1;fontSize=18;" vertex="1" parent="1">
          <mxGeometry x="1016.1299999999999" y="797.3800000000001" width="48.75" height="40" as="geometry" />
        </mxCell>
        <mxCell id="73l6ZmAT1cNKYX8VZmuh-20" value="&lt;div style=&quot;text-align: center&quot;&gt;&lt;font face=&quot;helvetica&quot;&gt;……&lt;/font&gt;&lt;/div&gt;" style="text;whiteSpace=wrap;html=1;fontSize=18;" vertex="1" parent="1">
          <mxGeometry x="1125.1299999999999" y="797.3800000000001" width="49.75" height="40" as="geometry" />
        </mxCell>
        <mxCell id="73l6ZmAT1cNKYX8VZmuh-21" value="&lt;span style=&quot;color: rgb(0 , 0 , 0) ; font-family: &amp;#34;helvetica&amp;#34; ; font-size: 18px ; font-style: normal ; font-weight: 400 ; letter-spacing: normal ; text-align: center ; text-indent: 0px ; text-transform: none ; word-spacing: 0px ; display: inline ; float: none&quot;&gt;Geo-文本&lt;/span&gt;" style="text;whiteSpace=wrap;html=1;fontSize=18;labelBackgroundColor=none;" vertex="1" parent="1">
          <mxGeometry x="990.3799999999999" y="387.3800000000002" width="90" height="40" as="geometry" />
        </mxCell>
        <mxCell id="73l6ZmAT1cNKYX8VZmuh-22" value="&lt;div style=&quot;text-align: center&quot;&gt;&lt;span&gt;&lt;font face=&quot;helvetica&quot;&gt;Geo-模型&lt;/font&gt;&lt;/span&gt;&lt;/div&gt;" style="text;whiteSpace=wrap;html=1;fontSize=18;" vertex="1" parent="1">
          <mxGeometry x="986.8199999999999" y="735.1300000000001" width="79.5" height="40" as="geometry" />
        </mxCell>
        <mxCell id="73l6ZmAT1cNKYX8VZmuh-23" value="" style="ellipse;whiteSpace=wrap;html=1;fontSize=18;fillColor=none;strokeColor=#5a5a5a;labelBackgroundColor=#ffffff;endArrow=classic;rounded=0;endSize=6;startSize=6;strokeWidth=1;dashed=1;" vertex="1" parent="1">
          <mxGeometry x="866.49" y="555.6300000000001" width="78.39" height="57.5" as="geometry" />
        </mxCell>
        <mxCell id="73l6ZmAT1cNKYX8VZmuh-24" value="" style="ellipse;whiteSpace=wrap;html=1;fontSize=18;fillColor=none;strokeColor=#5a5a5a;labelBackgroundColor=#ffffff;endArrow=classic;rounded=0;endSize=6;startSize=6;strokeWidth=1;dashed=1;" vertex="1" parent="1">
          <mxGeometry x="956.49" y="507.3800000000001" width="59.64" height="40" as="geometry" />
        </mxCell>
        <mxCell id="73l6ZmAT1cNKYX8VZmuh-25" value="" style="curved=1;endArrow=classic;html=1;rounded=0;fontSize=18;entryX=0.569;entryY=-0.032;entryDx=0;entryDy=0;strokeColor=#9d98ff;endSize=0;startSize=0;strokeWidth=6;fillColor=#9d98ff;exitX=0.75;exitY=1;exitDx=0;exitDy=0;opacity=70;entryPerimeter=0;" edge="1" parent="1" source="73l6ZmAT1cNKYX8VZmuh-7" target="73l6ZmAT1cNKYX8VZmuh-24">
          <mxGeometry width="50" height="50" relative="1" as="geometry">
            <mxPoint x="1074.6299999999999" y="475.3800000000001" as="sourcePoint" />
            <mxPoint x="1040.7549999999999" y="522.3800000000001" as="targetPoint" />
            <Array as="points" />
          </mxGeometry>
        </mxCell>
        <mxCell id="73l6ZmAT1cNKYX8VZmuh-26" value="" style="ellipse;whiteSpace=wrap;html=1;fontSize=18;fillColor=none;strokeColor=#5a5a5a;labelBackgroundColor=#ffffff;endArrow=classic;rounded=0;endSize=0;startSize=0;strokeWidth=1;dashed=1;" vertex="1" parent="1">
          <mxGeometry x="817.38" y="691.8800000000001" width="85.25" height="40" as="geometry" />
        </mxCell>
        <mxCell id="73l6ZmAT1cNKYX8VZmuh-27" value="" style="curved=1;endArrow=classic;html=1;rounded=0;fontSize=18;entryX=0;entryY=1;entryDx=0;entryDy=0;exitX=1;exitY=0;exitDx=0;exitDy=0;strokeColor=#9d98ff;endSize=0;startSize=0;strokeWidth=6;fillColor=#9d98ff;opacity=70;" edge="1" parent="1" source="73l6ZmAT1cNKYX8VZmuh-26" target="73l6ZmAT1cNKYX8VZmuh-23">
          <mxGeometry width="50" height="50" relative="1" as="geometry">
            <mxPoint x="1034.6299999999999" y="651.8800000000001" as="sourcePoint" />
            <mxPoint x="1084.6299999999999" y="601.8800000000001" as="targetPoint" />
            <Array as="points">
              <mxPoint x="889.88" y="651.8800000000001" />
            </Array>
          </mxGeometry>
        </mxCell>
        <mxCell id="73l6ZmAT1cNKYX8VZmuh-28" value="" style="ellipse;whiteSpace=wrap;html=1;fontSize=18;fillColor=none;strokeColor=#5a5a5a;labelBackgroundColor=#ffffff;endArrow=classic;rounded=0;endSize=6;startSize=6;strokeWidth=1;gradientColor=#ffffff;gradientDirection=north;dashed=1;" vertex="1" parent="1">
          <mxGeometry x="1214.8799999999999" y="771.8800000000001" width="91.5" height="43.25" as="geometry" />
        </mxCell>
        <mxCell id="73l6ZmAT1cNKYX8VZmuh-29" value="&lt;span style=&quot;color: rgb(0, 0, 0); font-family: helvetica; font-size: 18px; font-style: normal; font-weight: 400; letter-spacing: normal; text-align: center; text-indent: 0px; text-transform: none; word-spacing: 0px; display: inline; float: none;&quot;&gt;网络视频&lt;/span&gt;" style="text;whiteSpace=wrap;html=1;fontSize=18;labelBackgroundColor=none;" vertex="1" parent="1">
          <mxGeometry x="1221.4899999999998" y="775.1300000000001" width="83.39" height="40" as="geometry" />
        </mxCell>
        <mxCell id="73l6ZmAT1cNKYX8VZmuh-30" value="&lt;span style=&quot;color: rgb(0, 0, 0); font-family: helvetica; font-size: 18px; font-style: normal; font-weight: 400; letter-spacing: normal; text-align: center; text-indent: 0px; text-transform: none; word-spacing: 0px; display: inline; float: none;&quot;&gt;街景影像&lt;/span&gt;" style="text;whiteSpace=wrap;html=1;fontSize=18;labelBackgroundColor=none;fillColor=none;" vertex="1" parent="1">
          <mxGeometry x="821.63" y="695.8800000000001" width="78" height="27.64" as="geometry" />
        </mxCell>
        <mxCell id="73l6ZmAT1cNKYX8VZmuh-31" value="&lt;span style=&quot;color: rgb(0 , 0 , 0) ; font-family: &amp;#34;helvetica&amp;#34; ; font-size: 18px ; font-style: normal ; font-weight: 400 ; letter-spacing: normal ; text-align: center ; text-indent: 0px ; text-transform: none ; word-spacing: 0px ; display: inline ; float: none&quot;&gt;Geo-图像&lt;/span&gt;" style="text;whiteSpace=wrap;html=1;fontSize=18;labelBackgroundColor=none;" vertex="1" parent="1">
          <mxGeometry x="866.49" y="567.6300000000001" width="80" height="33.5" as="geometry" />
        </mxCell>
        <mxCell id="73l6ZmAT1cNKYX8VZmuh-32" value="&lt;span style=&quot;color: rgb(0, 0, 0); font-family: helvetica; font-size: 18px; font-style: normal; font-weight: 400; letter-spacing: normal; text-indent: 0px; text-transform: none; word-spacing: 0px; display: inline; float: none;&quot;&gt;点云&lt;/span&gt;" style="text;whiteSpace=wrap;html=1;fontSize=18;align=center;labelBackgroundColor=none;" vertex="1" parent="1">
          <mxGeometry x="975.6299999999999" y="620.3800000000001" width="40" height="30" as="geometry" />
        </mxCell>
        <mxCell id="73l6ZmAT1cNKYX8VZmuh-33" value="&lt;span style=&quot;font-family: helvetica;&quot;&gt;属性&lt;/span&gt;" style="text;whiteSpace=wrap;html=1;fontSize=18;align=center;labelBackgroundColor=none;" vertex="1" parent="1">
          <mxGeometry x="960.31" y="509.02" width="53.5" height="26.5" as="geometry" />
        </mxCell>
        <mxCell id="73l6ZmAT1cNKYX8VZmuh-34" value="" style="curved=1;endArrow=classic;html=1;rounded=0;fontSize=18;entryX=0.5;entryY=1;entryDx=0;entryDy=0;exitX=0.626;exitY=-0.018;exitDx=0;exitDy=0;strokeColor=#3ce4bb;endSize=0;startSize=0;strokeWidth=6;fillColor=#3ce4bb;opacity=70;exitPerimeter=0;" edge="1" parent="1" source="73l6ZmAT1cNKYX8VZmuh-28" target="73l6ZmAT1cNKYX8VZmuh-37">
          <mxGeometry width="50" height="50" relative="1" as="geometry">
            <mxPoint x="1056.6299999999999" y="551.8800000000001" as="sourcePoint" />
            <mxPoint x="1106.6299999999999" y="501.8800000000001" as="targetPoint" />
            <Array as="points">
              <mxPoint x="1281.8799999999999" y="711.8800000000001" />
            </Array>
          </mxGeometry>
        </mxCell>
        <mxCell id="73l6ZmAT1cNKYX8VZmuh-35" value="" style="endArrow=none;html=1;rounded=0;fontSize=18;entryX=0.5;entryY=0;entryDx=0;entryDy=0;" edge="1" parent="1" source="73l6ZmAT1cNKYX8VZmuh-2" target="73l6ZmAT1cNKYX8VZmuh-1">
          <mxGeometry width="50" height="50" relative="1" as="geometry">
            <mxPoint x="1214.8799999999999" y="551.8800000000001" as="sourcePoint" />
            <mxPoint x="1264.8799999999999" y="501.8800000000001" as="targetPoint" />
          </mxGeometry>
        </mxCell>
        <mxCell id="73l6ZmAT1cNKYX8VZmuh-36" value="" style="endArrow=none;html=1;rounded=0;fontSize=18;entryX=0.5;entryY=1;entryDx=0;entryDy=0;exitX=0.5;exitY=1;exitDx=0;exitDy=0;" edge="1" parent="1" source="73l6ZmAT1cNKYX8VZmuh-1" target="73l6ZmAT1cNKYX8VZmuh-2">
          <mxGeometry width="50" height="50" relative="1" as="geometry">
            <mxPoint x="1092.1570817756506" y="914.9235543194709" as="sourcePoint" />
            <mxPoint x="1090.105" y="821.8800000000006" as="targetPoint" />
          </mxGeometry>
        </mxCell>
        <mxCell id="73l6ZmAT1cNKYX8VZmuh-37" value="" style="ellipse;whiteSpace=wrap;html=1;fontSize=18;fillColor=none;strokeColor=#5a5a5a;labelBackgroundColor=#ffffff;endArrow=classic;rounded=0;endSize=6;startSize=6;strokeWidth=1;dashed=1;" vertex="1" parent="1">
          <mxGeometry x="1254.3799999999997" y="575.3800000000001" width="59.64" height="40" as="geometry" />
        </mxCell>
        <mxCell id="73l6ZmAT1cNKYX8VZmuh-38" value="&lt;span style=&quot;color: rgb(0, 0, 0); font-family: helvetica; font-size: 18px; font-style: normal; font-weight: 400; letter-spacing: normal; text-align: center; text-indent: 0px; text-transform: none; word-spacing: 0px; display: inline; float: none;&quot;&gt;图像&lt;/span&gt;" style="text;whiteSpace=wrap;html=1;fontSize=18;labelBackgroundColor=none;" vertex="1" parent="1">
          <mxGeometry x="1264.52" y="578.6300000000001" width="40" height="33.5" as="geometry" />
        </mxCell>
        <mxCell id="73l6ZmAT1cNKYX8VZmuh-39" value="" style="curved=1;endArrow=classic;html=1;rounded=0;fontSize=18;entryX=0.5;entryY=1;entryDx=0;entryDy=0;strokeColor=#9d98ff;endSize=0;startSize=0;strokeWidth=6;fillColor=#9d98ff;exitX=0.5;exitY=0;exitDx=0;exitDy=0;opacity=70;" edge="1" parent="1" source="73l6ZmAT1cNKYX8VZmuh-23" target="73l6ZmAT1cNKYX8VZmuh-7">
          <mxGeometry width="50" height="50" relative="1" as="geometry">
            <mxPoint x="1018.1300000000001" y="497.77" as="sourcePoint" />
            <mxPoint x="1000.42516" y="516.0999999999999" as="targetPoint" />
            <Array as="points">
              <mxPoint x="934.88" y="501.8800000000001" />
            </Array>
          </mxGeometry>
        </mxCell>
        <mxCell id="73l6ZmAT1cNKYX8VZmuh-40" value="" style="curved=1;endArrow=classic;html=1;rounded=0;fontSize=18;entryX=0.75;entryY=0;entryDx=0;entryDy=0;exitX=0.5;exitY=0;exitDx=0;exitDy=0;strokeColor=#3ce4bb;endSize=0;startSize=0;strokeWidth=6;fillColor=#3ce4bb;opacity=70;" edge="1" parent="1" source="73l6ZmAT1cNKYX8VZmuh-37" target="73l6ZmAT1cNKYX8VZmuh-7">
          <mxGeometry width="50" height="50" relative="1" as="geometry">
            <mxPoint x="1223.8799999999999" y="805.1300000000001" as="sourcePoint" />
            <mxPoint x="1076.319999999994" y="784.8800000000001" as="targetPoint" />
            <Array as="points">
              <mxPoint x="1261.8799999999999" y="521.8800000000001" />
            </Array>
          </mxGeometry>
        </mxCell>
        <mxCell id="73l6ZmAT1cNKYX8VZmuh-41" value="" style="endArrow=none;html=1;rounded=0;fontSize=18;entryX=0.5;entryY=0;entryDx=0;entryDy=0;exitX=0.5;exitY=0;exitDx=0;exitDy=0;" edge="1" parent="1" source="73l6ZmAT1cNKYX8VZmuh-3" target="73l6ZmAT1cNKYX8VZmuh-2">
          <mxGeometry width="50" height="50" relative="1" as="geometry">
            <mxPoint x="1107.13" y="358.5200000000003" as="sourcePoint" />
            <mxPoint x="1107.135" y="270.00000000000034" as="targetPoint" />
          </mxGeometry>
        </mxCell>
        <mxCell id="73l6ZmAT1cNKYX8VZmuh-42" value="" style="endArrow=none;html=1;rounded=0;fontSize=18;exitX=0.5;exitY=1;exitDx=0;exitDy=0;" edge="1" parent="1" source="73l6ZmAT1cNKYX8VZmuh-2" target="73l6ZmAT1cNKYX8VZmuh-3">
          <mxGeometry width="50" height="50" relative="1" as="geometry">
            <mxPoint x="1108.1299999999999" y="449.2404651162793" as="sourcePoint" />
            <mxPoint x="1107.13" y="358.5200000000003" as="targetPoint" />
          </mxGeometry>
        </mxCell>
        <mxCell id="73l6ZmAT1cNKYX8VZmuh-43" value="&lt;div style=&quot;text-align: center&quot;&gt;&lt;span&gt;&lt;font face=&quot;helvetica&quot;&gt;模型&lt;/font&gt;&lt;/span&gt;&lt;/div&gt;" style="text;whiteSpace=wrap;html=1;fontSize=18;" vertex="1" parent="1">
          <mxGeometry x="1125.1299999999999" y="735.1300000000001" width="49.75" height="40" as="geometry" />
        </mxCell>
        <mxCell id="73l6ZmAT1cNKYX8VZmuh-44" value="&lt;span style=&quot;color: rgb(0 , 0 , 0) ; font-family: &amp;#34;helvetica&amp;#34; ; font-size: 18px ; font-style: normal ; font-weight: 400 ; letter-spacing: normal ; text-align: center ; text-indent: 0px ; text-transform: none ; word-spacing: 0px ; display: inline ; float: none&quot;&gt;文本&lt;/span&gt;" style="text;whiteSpace=wrap;html=1;fontSize=18;labelBackgroundColor=none;" vertex="1" parent="1">
          <mxGeometry x="1130.7399999999998" y="387.3800000000002" width="45.75" height="29.14" as="geometry" />
        </mxCell>
        <mxCell id="73l6ZmAT1cNKYX8VZmuh-45" value="" style="curved=1;endArrow=classic;html=1;rounded=0;fontSize=18;exitX=0;exitY=1;exitDx=0;exitDy=0;fillColor=#3ce4bb;strokeColor=#3ce4bb;endSize=0;startSize=0;strokeWidth=6;opacity=70;" edge="1" parent="1" source="73l6ZmAT1cNKYX8VZmuh-24" target="73l6ZmAT1cNKYX8VZmuh-23">
          <mxGeometry width="50" height="50" relative="1" as="geometry">
            <mxPoint x="1044.8799999999999" y="471.8800000000001" as="sourcePoint" />
            <mxPoint x="1094.8799999999999" y="421.8800000000002" as="targetPoint" />
            <Array as="points">
              <mxPoint x="944.8799999999999" y="541.8800000000001" />
            </Array>
          </mxGeometry>
        </mxCell>
        <mxCell id="73l6ZmAT1cNKYX8VZmuh-46" value="" style="curved=1;endArrow=classic;html=1;rounded=0;fontSize=18;entryX=1;entryY=0;entryDx=0;entryDy=0;strokeColor=#3ce4bb;endSize=0;startSize=0;strokeWidth=6;fillColor=#3ce4bb;exitX=0.711;exitY=0.809;exitDx=0;exitDy=0;opacity=70;exitPerimeter=0;" edge="1" parent="1" source="73l6ZmAT1cNKYX8VZmuh-7" target="73l6ZmAT1cNKYX8VZmuh-33">
          <mxGeometry width="50" height="50" relative="1" as="geometry">
            <mxPoint x="1022.74" y="483.02000000000044" as="sourcePoint" />
            <mxPoint x="1000.42516" y="516.0999999999999" as="targetPoint" />
            <Array as="points" />
          </mxGeometry>
        </mxCell>
        <mxCell id="73l6ZmAT1cNKYX8VZmuh-47" value="" style="ellipse;whiteSpace=wrap;html=1;aspect=fixed;fontSize=18;fillColor=#ff8987;strokeColor=#ff8987;opacity=30;" vertex="1" parent="1">
          <mxGeometry x="114.26000000000002" y="272.11000000000024" width="629.75" height="629.75" as="geometry" />
        </mxCell>
        <mxCell id="73l6ZmAT1cNKYX8VZmuh-48" value="" style="ellipse;whiteSpace=wrap;html=1;aspect=fixed;fontSize=18;fillColor=#ffcd5a;strokeColor=#ffcd5a;opacity=60;" vertex="1" parent="1">
          <mxGeometry x="197.45000000000005" y="360.6300000000002" width="463.36" height="463.36" as="geometry" />
        </mxCell>
        <mxCell id="73l6ZmAT1cNKYX8VZmuh-49" value="" style="ellipse;whiteSpace=wrap;html=1;aspect=fixed;fontSize=18;fillColor=#8db9ff;strokeColor=none;opacity=40;" vertex="1" parent="1">
          <mxGeometry x="277.81000000000006" y="435.66999999999996" width="302.64" height="302.64" as="geometry" />
        </mxCell>
        <mxCell id="73l6ZmAT1cNKYX8VZmuh-50" value="&lt;span style=&quot;background-color: rgb(248 , 249 , 250)&quot;&gt;Reconstructing&lt;br&gt;&lt;br&gt;&lt;/span&gt;" style="shape=dataStorage;whiteSpace=wrap;html=1;fixedSize=1;fontSize=18;rotation=-90;size=30;horizontal=0;strokeColor=default;strokeWidth=1;verticalAlign=middle;" vertex="1" parent="1">
          <mxGeometry x="402.64000000000004" y="625.6100000000001" width="56" height="170" as="geometry" />
        </mxCell>
        <mxCell id="73l6ZmAT1cNKYX8VZmuh-51" value="富语义城市模型" style="ellipse;whiteSpace=wrap;html=1;aspect=fixed;fontSize=18;fillColor=#3ce4bb;strokeColor=none;opacity=40;fontStyle=1" vertex="1" parent="1">
          <mxGeometry x="331.13" y="497.49000000000024" width="186" height="186" as="geometry" />
        </mxCell>
        <mxCell id="73l6ZmAT1cNKYX8VZmuh-52" value="Merging&lt;br&gt;&amp;nbsp;" style="shape=dataStorage;whiteSpace=wrap;html=1;fixedSize=1;fontSize=18;rotation=-180;size=30;horizontal=0;strokeColor=default;strokeWidth=1;" vertex="1" parent="1">
          <mxGeometry x="472.7400000000001" y="525.4900000000002" width="61.5" height="130" as="geometry" />
        </mxCell>
        <mxCell id="73l6ZmAT1cNKYX8VZmuh-53" value="&lt;span style=&quot;border-color: var(--border-color); background-color: rgb(248, 249, 250);&quot;&gt;Extracting&lt;br style=&quot;border-color: var(--border-color);&quot;&gt;&lt;/span&gt;&lt;div&gt;&lt;span style=&quot;border-color: var(--border-color); background-color: rgb(248, 249, 250);&quot;&gt;&lt;br&gt;&lt;/span&gt;&lt;/div&gt;" style="shape=dataStorage;whiteSpace=wrap;html=1;fixedSize=1;fontSize=18;rotation=90;size=30;horizontal=0;strokeColor=default;strokeWidth=1;" vertex="1" parent="1">
          <mxGeometry x="399.64" y="380.6300000000002" width="59" height="170" as="geometry" />
        </mxCell>
        <mxCell id="73l6ZmAT1cNKYX8VZmuh-54" value="Semantic infomatition" style="rounded=1;whiteSpace=wrap;html=1;fontSize=18;strokeColor=default;strokeWidth=1;" vertex="1" parent="1">
          <mxGeometry x="365.02" y="523.4899999999998" width="98" height="45.23" as="geometry" />
        </mxCell>
        <mxCell id="73l6ZmAT1cNKYX8VZmuh-55" value="Appearance" style="rounded=1;whiteSpace=wrap;html=1;fontSize=18;strokeColor=default;strokeWidth=1;" vertex="1" parent="1">
          <mxGeometry x="365.02" y="618.0999999999999" width="102" height="27.75" as="geometry" />
        </mxCell>
        <mxCell id="73l6ZmAT1cNKYX8VZmuh-56" value="&lt;span style=&quot;text-align: center&quot;&gt;卫星影像&lt;/span&gt;" style="text;whiteSpace=wrap;html=1;fontSize=18;" vertex="1" parent="1">
          <mxGeometry x="171.49" y="399.4900000000001" width="74" height="40" as="geometry" />
        </mxCell>
        <mxCell id="73l6ZmAT1cNKYX8VZmuh-57" value="&lt;div style=&quot;text-align: center&quot;&gt;&lt;span&gt;&lt;font face=&quot;helvetica&quot;&gt;地形&lt;/font&gt;&lt;/span&gt;&lt;/div&gt;" style="text;whiteSpace=wrap;html=1;fontSize=18;" vertex="1" parent="1">
          <mxGeometry x="117.52000000000001" y="555.3800000000001" width="50" height="29" as="geometry" />
        </mxCell>
        <mxCell id="73l6ZmAT1cNKYX8VZmuh-58" value="&lt;div style=&quot;text-align: center&quot;&gt;&lt;span&gt;&lt;font face=&quot;helvetica&quot;&gt;倾斜模型&lt;/font&gt;&lt;/span&gt;&lt;/div&gt;" style="text;whiteSpace=wrap;html=1;fontSize=18;" vertex="1" parent="1">
          <mxGeometry x="122.88000000000002" y="632.4900000000002" width="100" height="40" as="geometry" />
        </mxCell>
        <mxCell id="73l6ZmAT1cNKYX8VZmuh-59" value="&lt;span style=&quot;font-family: helvetica; font-size: 18px; font-style: normal; font-weight: 400; letter-spacing: normal; text-align: center; text-indent: 0px; text-transform: none; word-spacing: 0px; display: inline; float: none;&quot;&gt;矢量&lt;/span&gt;" style="text;whiteSpace=wrap;html=1;fontSize=18;fillColor=none;fontColor=default;labelBackgroundColor=none;" vertex="1" parent="1">
          <mxGeometry x="133.63000000000002" y="473.4900000000001" width="55" height="32" as="geometry" />
        </mxCell>
        <mxCell id="73l6ZmAT1cNKYX8VZmuh-60" value="&lt;div style=&quot;text-align: center&quot;&gt;&lt;span&gt;&lt;font face=&quot;helvetica&quot;&gt;地表覆盖&lt;/font&gt;&lt;/span&gt;&lt;/div&gt;" style="text;whiteSpace=wrap;html=1;fontSize=18;" vertex="1" parent="1">
          <mxGeometry x="217.88" y="795.6100000000001" width="100" height="40" as="geometry" />
        </mxCell>
        <mxCell id="73l6ZmAT1cNKYX8VZmuh-61" value="&lt;span style=&quot;font-size: 18px; font-style: normal; letter-spacing: normal; text-align: left; text-indent: 0px; text-transform: none; word-spacing: 0px; font-family: helvetica; display: inline; float: none;&quot;&gt;基础&lt;br&gt;&lt;/span&gt;&lt;span style=&quot;font-size: 18px; font-style: normal; letter-spacing: normal; text-align: left; text-indent: 0px; text-transform: none; word-spacing: 0px; font-family: helvetica; display: inline; float: none;&quot;&gt;地理&lt;br&gt;&lt;/span&gt;&lt;span style=&quot;font-size: 18px; font-style: normal; letter-spacing: normal; text-align: left; text-indent: 0px; text-transform: none; word-spacing: 0px; font-family: helvetica; display: inline; float: none;&quot;&gt;数据&lt;/span&gt;" style="text;whiteSpace=wrap;html=1;fontSize=18;fillColor=none;fontColor=default;labelBackgroundColor=none;fontStyle=1" vertex="1" parent="1">
          <mxGeometry x="368.26" y="285.1299999999999" width="40" height="75.5" as="geometry" />
        </mxCell>
        <mxCell id="73l6ZmAT1cNKYX8VZmuh-62" value="&lt;span style=&quot;text-align: right&quot;&gt;多源&lt;br&gt;&lt;/span&gt;&lt;span style=&quot;text-align: right&quot;&gt;公开&lt;br&gt;&lt;/span&gt;&lt;span style=&quot;text-align: right&quot;&gt;数据&lt;/span&gt;" style="text;whiteSpace=wrap;html=1;fontSize=18;fontStyle=1" vertex="1" parent="1">
          <mxGeometry x="448.26" y="285.1299999999999" width="40" height="75.5" as="geometry" />
        </mxCell>
        <mxCell id="73l6ZmAT1cNKYX8VZmuh-63" value="&lt;span style=&quot;font-family: helvetica; font-size: 18px; font-style: normal; font-weight: 400; letter-spacing: normal; text-align: center; text-indent: 0px; text-transform: none; word-spacing: 0px; display: inline; float: none;&quot;&gt;公开报道&lt;/span&gt;" style="text;whiteSpace=wrap;html=1;fontSize=18;fillColor=none;fontColor=default;labelBackgroundColor=none;" vertex="1" parent="1">
          <mxGeometry x="589.38" y="385.3800000000002" width="100" height="40" as="geometry" />
        </mxCell>
        <mxCell id="73l6ZmAT1cNKYX8VZmuh-64" value="&lt;span style=&quot;font-family: helvetica; font-size: 18px; font-style: normal; font-weight: 400; letter-spacing: normal; text-align: center; text-indent: 0px; text-transform: none; word-spacing: 0px; display: inline; float: none;&quot;&gt;网络&lt;br&gt;图片&lt;/span&gt;" style="text;whiteSpace=wrap;html=1;fontSize=18;fillColor=none;fontColor=default;labelBackgroundColor=none;" vertex="1" parent="1">
          <mxGeometry x="675.9" y="569.9900000000002" width="54.36" height="34" as="geometry" />
        </mxCell>
        <mxCell id="73l6ZmAT1cNKYX8VZmuh-65" value="&lt;div style=&quot;text-align: center&quot;&gt;&lt;font face=&quot;helvetica&quot;&gt;……&lt;/font&gt;&lt;/div&gt;" style="text;whiteSpace=wrap;html=1;fontSize=18;" vertex="1" parent="1">
          <mxGeometry x="348.13" y="809.4900000000002" width="48.75" height="40" as="geometry" />
        </mxCell>
        <mxCell id="73l6ZmAT1cNKYX8VZmuh-66" value="&lt;div style=&quot;text-align: center&quot;&gt;&lt;font face=&quot;helvetica&quot;&gt;……&lt;/font&gt;&lt;/div&gt;" style="text;whiteSpace=wrap;html=1;fontSize=18;" vertex="1" parent="1">
          <mxGeometry x="457.13" y="809.4900000000002" width="49.75" height="40" as="geometry" />
        </mxCell>
        <mxCell id="73l6ZmAT1cNKYX8VZmuh-67" value="&lt;span style=&quot;color: rgb(0 , 0 , 0) ; font-family: &amp;#34;helvetica&amp;#34; ; font-size: 18px ; font-style: normal ; font-weight: 400 ; letter-spacing: normal ; text-align: center ; text-indent: 0px ; text-transform: none ; word-spacing: 0px ; display: inline ; float: none&quot;&gt;Geo-文本&lt;/span&gt;" style="text;whiteSpace=wrap;html=1;fontSize=18;labelBackgroundColor=none;" vertex="1" parent="1">
          <mxGeometry x="322.38" y="399.4900000000001" width="90" height="40" as="geometry" />
        </mxCell>
        <mxCell id="73l6ZmAT1cNKYX8VZmuh-68" value="&lt;div style=&quot;text-align: center&quot;&gt;&lt;span&gt;&lt;font face=&quot;helvetica&quot;&gt;Geo-模型&lt;/font&gt;&lt;/span&gt;&lt;/div&gt;" style="text;whiteSpace=wrap;html=1;fontSize=18;" vertex="1" parent="1">
          <mxGeometry x="318.82000000000005" y="747.2400000000002" width="79.5" height="40" as="geometry" />
        </mxCell>
        <mxCell id="73l6ZmAT1cNKYX8VZmuh-69" value="" style="ellipse;whiteSpace=wrap;html=1;fontSize=18;fillColor=none;strokeColor=#5a5a5a;labelBackgroundColor=#ffffff;endArrow=classic;rounded=0;endSize=6;startSize=6;strokeWidth=1;dashed=1;" vertex="1" parent="1">
          <mxGeometry x="198.49" y="567.7400000000002" width="78.39" height="57.5" as="geometry" />
        </mxCell>
        <mxCell id="73l6ZmAT1cNKYX8VZmuh-70" value="" style="ellipse;whiteSpace=wrap;html=1;fontSize=18;fillColor=none;strokeColor=#5a5a5a;labelBackgroundColor=#ffffff;endArrow=classic;rounded=0;endSize=6;startSize=6;strokeWidth=1;dashed=1;" vertex="1" parent="1">
          <mxGeometry x="288.4900000000001" y="519.4900000000002" width="59.64" height="40" as="geometry" />
        </mxCell>
        <mxCell id="73l6ZmAT1cNKYX8VZmuh-71" value="" style="curved=1;endArrow=classic;html=1;rounded=0;fontSize=18;entryX=0.569;entryY=-0.032;entryDx=0;entryDy=0;strokeColor=#ff8987;endSize=0;startSize=0;strokeWidth=6;fillColor=#ff8987;exitX=0.75;exitY=1;exitDx=0;exitDy=0;opacity=70;entryPerimeter=0;" edge="1" parent="1" source="73l6ZmAT1cNKYX8VZmuh-53" target="73l6ZmAT1cNKYX8VZmuh-70">
          <mxGeometry width="50" height="50" relative="1" as="geometry">
            <mxPoint x="406.63" y="487.4900000000001" as="sourcePoint" />
            <mxPoint x="372.755" y="534.4900000000002" as="targetPoint" />
            <Array as="points" />
          </mxGeometry>
        </mxCell>
        <mxCell id="73l6ZmAT1cNKYX8VZmuh-72" value="" style="ellipse;whiteSpace=wrap;html=1;fontSize=18;fillColor=none;strokeColor=#5a5a5a;labelBackgroundColor=#ffffff;endArrow=classic;rounded=0;endSize=0;startSize=0;strokeWidth=1;dashed=1;" vertex="1" parent="1">
          <mxGeometry x="149.38" y="703.9900000000002" width="85.25" height="40" as="geometry" />
        </mxCell>
        <mxCell id="73l6ZmAT1cNKYX8VZmuh-73" value="" style="curved=1;endArrow=classic;html=1;rounded=0;fontSize=18;entryX=0;entryY=1;entryDx=0;entryDy=0;exitX=1;exitY=0;exitDx=0;exitDy=0;strokeColor=#ff8987;endSize=0;startSize=0;strokeWidth=6;fillColor=#ff8987;opacity=70;" edge="1" parent="1" source="73l6ZmAT1cNKYX8VZmuh-72" target="73l6ZmAT1cNKYX8VZmuh-69">
          <mxGeometry width="50" height="50" relative="1" as="geometry">
            <mxPoint x="366.63" y="663.9900000000002" as="sourcePoint" />
            <mxPoint x="416.63" y="613.9900000000002" as="targetPoint" />
            <Array as="points">
              <mxPoint x="221.88" y="663.9900000000002" />
            </Array>
          </mxGeometry>
        </mxCell>
        <mxCell id="73l6ZmAT1cNKYX8VZmuh-74" value="&lt;span style=&quot;color: rgb(0, 0, 0); font-family: helvetica; font-size: 18px; font-style: normal; font-weight: 400; letter-spacing: normal; text-align: center; text-indent: 0px; text-transform: none; word-spacing: 0px; display: inline; float: none;&quot;&gt;网络视频&lt;/span&gt;" style="text;whiteSpace=wrap;html=1;fontSize=18;labelBackgroundColor=none;" vertex="1" parent="1">
          <mxGeometry x="553.4899999999999" y="787.2400000000002" width="83.39" height="40" as="geometry" />
        </mxCell>
        <mxCell id="73l6ZmAT1cNKYX8VZmuh-75" value="&lt;span style=&quot;color: rgb(0, 0, 0); font-family: helvetica; font-size: 18px; font-style: normal; font-weight: 400; letter-spacing: normal; text-align: center; text-indent: 0px; text-transform: none; word-spacing: 0px; display: inline; float: none;&quot;&gt;街景影像&lt;/span&gt;" style="text;whiteSpace=wrap;html=1;fontSize=18;labelBackgroundColor=none;fillColor=none;" vertex="1" parent="1">
          <mxGeometry x="153.63" y="707.9900000000002" width="78" height="27.64" as="geometry" />
        </mxCell>
        <mxCell id="73l6ZmAT1cNKYX8VZmuh-76" value="&lt;span style=&quot;color: rgb(0 , 0 , 0) ; font-family: &amp;#34;helvetica&amp;#34; ; font-size: 18px ; font-style: normal ; font-weight: 400 ; letter-spacing: normal ; text-align: center ; text-indent: 0px ; text-transform: none ; word-spacing: 0px ; display: inline ; float: none&quot;&gt;Geo-图像&lt;/span&gt;" style="text;whiteSpace=wrap;html=1;fontSize=18;labelBackgroundColor=none;" vertex="1" parent="1">
          <mxGeometry x="198.49" y="579.7400000000002" width="80" height="33.5" as="geometry" />
        </mxCell>
        <mxCell id="73l6ZmAT1cNKYX8VZmuh-77" value="&lt;span style=&quot;color: rgb(0, 0, 0); font-family: helvetica; font-size: 18px; font-style: normal; font-weight: 400; letter-spacing: normal; text-indent: 0px; text-transform: none; word-spacing: 0px; display: inline; float: none;&quot;&gt;点云&lt;/span&gt;" style="text;whiteSpace=wrap;html=1;fontSize=18;align=center;labelBackgroundColor=none;" vertex="1" parent="1">
          <mxGeometry x="297.63" y="624.4900000000002" width="40" height="30" as="geometry" />
        </mxCell>
        <mxCell id="73l6ZmAT1cNKYX8VZmuh-78" value="&lt;font face=&quot;helvetica&quot;&gt;属性&lt;/font&gt;" style="text;whiteSpace=wrap;html=1;fontSize=18;align=center;labelBackgroundColor=none;" vertex="1" parent="1">
          <mxGeometry x="292.31000000000006" y="521.1300000000001" width="53.5" height="26.5" as="geometry" />
        </mxCell>
        <mxCell id="73l6ZmAT1cNKYX8VZmuh-79" value="" style="endArrow=none;html=1;rounded=0;fontSize=18;entryX=0.5;entryY=0;entryDx=0;entryDy=0;" edge="1" parent="1" source="73l6ZmAT1cNKYX8VZmuh-48" target="73l6ZmAT1cNKYX8VZmuh-47">
          <mxGeometry width="50" height="50" relative="1" as="geometry">
            <mxPoint x="546.88" y="563.9900000000002" as="sourcePoint" />
            <mxPoint x="596.88" y="513.9900000000002" as="targetPoint" />
          </mxGeometry>
        </mxCell>
        <mxCell id="73l6ZmAT1cNKYX8VZmuh-80" value="" style="endArrow=none;html=1;rounded=0;fontSize=18;entryX=0.5;entryY=1;entryDx=0;entryDy=0;exitX=0.5;exitY=1;exitDx=0;exitDy=0;" edge="1" parent="1" source="73l6ZmAT1cNKYX8VZmuh-47" target="73l6ZmAT1cNKYX8VZmuh-48">
          <mxGeometry width="50" height="50" relative="1" as="geometry">
            <mxPoint x="424.1570817756507" y="927.033554319471" as="sourcePoint" />
            <mxPoint x="422.10500000000013" y="833.9900000000007" as="targetPoint" />
          </mxGeometry>
        </mxCell>
        <mxCell id="73l6ZmAT1cNKYX8VZmuh-81" value="&lt;span style=&quot;color: rgb(0, 0, 0); font-family: helvetica; font-size: 18px; font-style: normal; font-weight: 400; letter-spacing: normal; text-align: center; text-indent: 0px; text-transform: none; word-spacing: 0px; display: inline; float: none;&quot;&gt;图像&lt;/span&gt;" style="text;whiteSpace=wrap;html=1;fontSize=18;labelBackgroundColor=none;" vertex="1" parent="1">
          <mxGeometry x="596.5200000000001" y="590.7400000000002" width="40" height="33.5" as="geometry" />
        </mxCell>
        <mxCell id="73l6ZmAT1cNKYX8VZmuh-82" value="" style="curved=1;endArrow=classic;html=1;rounded=0;fontSize=18;entryX=0.5;entryY=1;entryDx=0;entryDy=0;strokeColor=#ff8987;endSize=0;startSize=0;strokeWidth=6;fillColor=#ff8987;exitX=0.5;exitY=0;exitDx=0;exitDy=0;opacity=70;" edge="1" parent="1" source="73l6ZmAT1cNKYX8VZmuh-69" target="73l6ZmAT1cNKYX8VZmuh-53">
          <mxGeometry width="50" height="50" relative="1" as="geometry">
            <mxPoint x="350.1300000000002" y="509.8800000000001" as="sourcePoint" />
            <mxPoint x="332.4251600000001" y="528.21" as="targetPoint" />
            <Array as="points">
              <mxPoint x="266.88" y="513.9900000000002" />
            </Array>
          </mxGeometry>
        </mxCell>
        <mxCell id="73l6ZmAT1cNKYX8VZmuh-83" value="" style="endArrow=none;html=1;rounded=0;fontSize=18;entryX=0.5;entryY=0;entryDx=0;entryDy=0;exitX=0.5;exitY=0;exitDx=0;exitDy=0;" edge="1" parent="1" source="73l6ZmAT1cNKYX8VZmuh-49" target="73l6ZmAT1cNKYX8VZmuh-48">
          <mxGeometry width="50" height="50" relative="1" as="geometry">
            <mxPoint x="439.1300000000002" y="370.6300000000002" as="sourcePoint" />
            <mxPoint x="439.1350000000001" y="282.11000000000024" as="targetPoint" />
          </mxGeometry>
        </mxCell>
        <mxCell id="73l6ZmAT1cNKYX8VZmuh-84" value="" style="endArrow=none;html=1;rounded=0;fontSize=18;exitX=0.5;exitY=1;exitDx=0;exitDy=0;" edge="1" parent="1" source="73l6ZmAT1cNKYX8VZmuh-48" target="73l6ZmAT1cNKYX8VZmuh-49">
          <mxGeometry width="50" height="50" relative="1" as="geometry">
            <mxPoint x="440.13" y="461.3504651162792" as="sourcePoint" />
            <mxPoint x="439.1300000000002" y="370.6300000000002" as="targetPoint" />
          </mxGeometry>
        </mxCell>
        <mxCell id="73l6ZmAT1cNKYX8VZmuh-85" value="&lt;div style=&quot;text-align: center&quot;&gt;&lt;span&gt;&lt;font face=&quot;helvetica&quot;&gt;模型&lt;/font&gt;&lt;/span&gt;&lt;/div&gt;" style="text;whiteSpace=wrap;html=1;fontSize=18;" vertex="1" parent="1">
          <mxGeometry x="457.13" y="747.2400000000002" width="49.75" height="40" as="geometry" />
        </mxCell>
        <mxCell id="73l6ZmAT1cNKYX8VZmuh-86" value="&lt;span style=&quot;color: rgb(0 , 0 , 0) ; font-family: &amp;#34;helvetica&amp;#34; ; font-size: 18px ; font-style: normal ; font-weight: 400 ; letter-spacing: normal ; text-align: center ; text-indent: 0px ; text-transform: none ; word-spacing: 0px ; display: inline ; float: none&quot;&gt;文本&lt;/span&gt;" style="text;whiteSpace=wrap;html=1;fontSize=18;labelBackgroundColor=none;" vertex="1" parent="1">
          <mxGeometry x="471.13" y="404.85" width="45.75" height="29.14" as="geometry" />
        </mxCell>
        <mxCell id="73l6ZmAT1cNKYX8VZmuh-87" value="" style="curved=1;endArrow=classic;html=1;rounded=0;fontSize=18;strokeColor=#ff8987;endSize=0;startSize=0;strokeWidth=6;fillColor=#ff8987;exitX=0.5;exitY=1;exitDx=0;exitDy=0;opacity=70;entryX=0.5;entryY=0;entryDx=0;entryDy=0;" edge="1" parent="1" source="73l6ZmAT1cNKYX8VZmuh-69" target="73l6ZmAT1cNKYX8VZmuh-50">
          <mxGeometry width="50" height="50" relative="1" as="geometry">
            <mxPoint x="247.68500000000017" y="577.7400000000002" as="sourcePoint" />
            <mxPoint x="354.74" y="480.3800000000002" as="targetPoint" />
            <Array as="points">
              <mxPoint x="260" y="670" />
            </Array>
          </mxGeometry>
        </mxCell>
        <mxCell id="73l6ZmAT1cNKYX8VZmuh-88" value="" style="ellipse;whiteSpace=wrap;html=1;fontSize=18;fillColor=none;strokeColor=#5a5a5a;labelBackgroundColor=#ffffff;endArrow=classic;rounded=0;endSize=6;startSize=6;strokeWidth=1;dashed=1;" vertex="1" parent="1">
          <mxGeometry x="286.17000000000013" y="623" width="59.64" height="40" as="geometry" />
        </mxCell>
        <mxCell id="73l6ZmAT1cNKYX8VZmuh-89" value="" style="curved=1;endArrow=classic;html=1;rounded=0;fontSize=18;strokeColor=#ff8987;endSize=0;startSize=0;strokeWidth=6;fillColor=#ff8987;exitX=1;exitY=1;exitDx=0;exitDy=0;opacity=70;entryX=0.5;entryY=0;entryDx=0;entryDy=0;" edge="1" parent="1" source="73l6ZmAT1cNKYX8VZmuh-88" target="73l6ZmAT1cNKYX8VZmuh-52">
          <mxGeometry width="50" height="50" relative="1" as="geometry">
            <mxPoint x="247.68500000000017" y="635.2400000000002" as="sourcePoint" />
            <mxPoint x="303.7000000000005" y="661.48" as="targetPoint" />
            <Array as="points">
              <mxPoint x="422.52" y="721.5999999999999" />
            </Array>
          </mxGeometry>
        </mxCell>
        <mxCell id="73l6ZmAT1cNKYX8VZmuh-90" value="" style="curved=1;endArrow=classic;html=1;rounded=0;fontSize=18;strokeColor=#ff8987;endSize=0;startSize=0;strokeWidth=6;fillColor=#ff8987;exitX=1;exitY=0.25;exitDx=0;exitDy=0;opacity=70;entryX=0.5;entryY=1;entryDx=0;entryDy=0;" edge="1" parent="1" source="73l6ZmAT1cNKYX8VZmuh-78" target="73l6ZmAT1cNKYX8VZmuh-52">
          <mxGeometry width="50" height="50" relative="1" as="geometry">
            <mxPoint x="354.5474066104355" y="675.661274225642" as="sourcePoint" />
            <mxPoint x="513.4900000000002" y="665.4900000000002" as="targetPoint" />
            <Array as="points">
              <mxPoint x="412.52" y="451.6" />
            </Array>
          </mxGeometry>
        </mxCell>
        <mxCell id="73l6ZmAT1cNKYX8VZmuh-91" value="" style="curved=1;endArrow=classic;html=1;rounded=0;fontSize=18;entryX=0.5;entryY=0;entryDx=0;entryDy=0;strokeColor=#ff8987;endSize=0;startSize=0;strokeWidth=6;fillColor=#ff8987;exitX=1;exitY=1;exitDx=0;exitDy=0;opacity=70;" edge="1" parent="1" source="73l6ZmAT1cNKYX8VZmuh-52" target="73l6ZmAT1cNKYX8VZmuh-54">
          <mxGeometry width="50" height="50" relative="1" as="geometry">
            <mxPoint x="354.74" y="495.12999999999965" as="sourcePoint" />
            <mxPoint x="332.42516000000023" y="528.21" as="targetPoint" />
            <Array as="points">
              <mxPoint x="434.52" y="501.5999999999999" />
            </Array>
          </mxGeometry>
        </mxCell>
        <mxCell id="73l6ZmAT1cNKYX8VZmuh-92" value="" style="ellipse;whiteSpace=wrap;html=1;aspect=fixed;fontSize=18;fillColor=#ff8987;strokeColor=#ff8987;opacity=30;" vertex="1" parent="1">
          <mxGeometry x="-570" y="269.5000000000002" width="629.75" height="629.75" as="geometry" />
        </mxCell>
        <mxCell id="73l6ZmAT1cNKYX8VZmuh-93" value="" style="ellipse;whiteSpace=wrap;html=1;aspect=fixed;fontSize=18;fillColor=#ffcd5a;strokeColor=#ffcd5a;opacity=60;" vertex="1" parent="1">
          <mxGeometry x="-486.80999999999995" y="358.0200000000002" width="463.36" height="463.36" as="geometry" />
        </mxCell>
        <mxCell id="73l6ZmAT1cNKYX8VZmuh-94" value="" style="ellipse;whiteSpace=wrap;html=1;aspect=fixed;fontSize=18;fillColor=#8db9ff;strokeColor=none;opacity=40;" vertex="1" parent="1">
          <mxGeometry x="-406.44999999999993" y="433.05999999999995" width="302.64" height="302.64" as="geometry" />
        </mxCell>
        <mxCell id="73l6ZmAT1cNKYX8VZmuh-95" value="&lt;span style=&quot;background-color: rgb(248 , 249 , 250)&quot;&gt;Reconstructing&lt;br&gt;&lt;br&gt;&lt;/span&gt;" style="shape=dataStorage;whiteSpace=wrap;html=1;fixedSize=1;fontSize=18;rotation=-90;size=30;horizontal=0;strokeColor=default;strokeWidth=1;verticalAlign=middle;" vertex="1" parent="1">
          <mxGeometry x="-281.6199999999999" y="623.0000000000002" width="56" height="170" as="geometry" />
        </mxCell>
        <mxCell id="73l6ZmAT1cNKYX8VZmuh-96" value="富语义城市模型" style="ellipse;whiteSpace=wrap;html=1;aspect=fixed;fontSize=18;fillColor=#3ce4bb;strokeColor=none;opacity=40;fontStyle=1" vertex="1" parent="1">
          <mxGeometry x="-353.13" y="494.88000000000034" width="186" height="186" as="geometry" />
        </mxCell>
        <mxCell id="73l6ZmAT1cNKYX8VZmuh-97" value="Merging&lt;br&gt;&amp;nbsp;" style="shape=dataStorage;whiteSpace=wrap;html=1;fixedSize=1;fontSize=18;rotation=-180;size=30;horizontal=0;strokeColor=default;strokeWidth=1;" vertex="1" parent="1">
          <mxGeometry x="-211.51999999999987" y="522.8800000000003" width="61.5" height="130" as="geometry" />
        </mxCell>
        <mxCell id="73l6ZmAT1cNKYX8VZmuh-98" value="&lt;span style=&quot;background-color: rgb(248 , 249 , 250)&quot;&gt;Extracting&lt;br&gt;&lt;/span&gt;&lt;div&gt;&lt;span style=&quot;background-color: rgb(248 , 249 , 250)&quot;&gt;&lt;br&gt;&lt;/span&gt;&lt;/div&gt;" style="shape=dataStorage;whiteSpace=wrap;html=1;fixedSize=1;fontSize=18;rotation=90;size=30;horizontal=0;strokeColor=default;strokeWidth=1;" vertex="1" parent="1">
          <mxGeometry x="-284.62" y="378.0200000000002" width="59" height="170" as="geometry" />
        </mxCell>
        <mxCell id="73l6ZmAT1cNKYX8VZmuh-99" value="Semantic infomatition" style="rounded=1;whiteSpace=wrap;html=1;fontSize=18;strokeColor=default;strokeWidth=1;" vertex="1" parent="1">
          <mxGeometry x="-319.24" y="522.8799999999999" width="98" height="45.23" as="geometry" />
        </mxCell>
        <mxCell id="73l6ZmAT1cNKYX8VZmuh-100" value="Appearance" style="rounded=1;whiteSpace=wrap;html=1;fontSize=18;strokeColor=default;strokeWidth=1;" vertex="1" parent="1">
          <mxGeometry x="-319.24" y="615.49" width="102" height="27.75" as="geometry" />
        </mxCell>
        <mxCell id="73l6ZmAT1cNKYX8VZmuh-101" value="&lt;span style=&quot;text-align: center&quot;&gt;卫星影像&lt;/span&gt;" style="text;whiteSpace=wrap;html=1;fontSize=18;" vertex="1" parent="1">
          <mxGeometry x="-512.77" y="396.8800000000001" width="74" height="40" as="geometry" />
        </mxCell>
        <mxCell id="73l6ZmAT1cNKYX8VZmuh-102" value="&lt;div style=&quot;text-align: center&quot;&gt;&lt;span&gt;&lt;font face=&quot;helvetica&quot;&gt;地形&lt;/font&gt;&lt;/span&gt;&lt;/div&gt;" style="text;whiteSpace=wrap;html=1;fontSize=18;" vertex="1" parent="1">
          <mxGeometry x="-567.74" y="552.7700000000002" width="50" height="29" as="geometry" />
        </mxCell>
        <mxCell id="73l6ZmAT1cNKYX8VZmuh-103" value="&lt;div style=&quot;text-align: center&quot;&gt;&lt;span&gt;&lt;font face=&quot;helvetica&quot;&gt;倾斜模型&lt;/font&gt;&lt;/span&gt;&lt;/div&gt;" style="text;whiteSpace=wrap;html=1;fontSize=18;" vertex="1" parent="1">
          <mxGeometry x="-561.38" y="629.8800000000003" width="100" height="40" as="geometry" />
        </mxCell>
        <mxCell id="73l6ZmAT1cNKYX8VZmuh-104" value="&lt;span style=&quot;font-family: helvetica; font-size: 18px; font-style: normal; font-weight: 400; letter-spacing: normal; text-align: center; text-indent: 0px; text-transform: none; word-spacing: 0px; display: inline; float: none;&quot;&gt;矢量&lt;/span&gt;" style="text;whiteSpace=wrap;html=1;fontSize=18;fillColor=none;fontColor=default;labelBackgroundColor=none;" vertex="1" parent="1">
          <mxGeometry x="-550.63" y="470.88" width="55" height="32" as="geometry" />
        </mxCell>
        <mxCell id="73l6ZmAT1cNKYX8VZmuh-105" value="&lt;div style=&quot;text-align: center&quot;&gt;&lt;span&gt;&lt;font face=&quot;helvetica&quot;&gt;地表覆盖&lt;/font&gt;&lt;/span&gt;&lt;/div&gt;" style="text;whiteSpace=wrap;html=1;fontSize=18;" vertex="1" parent="1">
          <mxGeometry x="-466.38" y="793.0000000000002" width="100" height="40" as="geometry" />
        </mxCell>
        <mxCell id="73l6ZmAT1cNKYX8VZmuh-106" value="&lt;span style=&quot;font-size: 18px; font-style: normal; letter-spacing: normal; text-align: left; text-indent: 0px; text-transform: none; word-spacing: 0px; font-family: helvetica; display: inline; float: none;&quot;&gt;基础&lt;br&gt;&lt;/span&gt;&lt;span style=&quot;font-size: 18px; font-style: normal; letter-spacing: normal; text-align: left; text-indent: 0px; text-transform: none; word-spacing: 0px; font-family: helvetica; display: inline; float: none;&quot;&gt;地理&lt;br&gt;&lt;/span&gt;&lt;span style=&quot;font-size: 18px; font-style: normal; letter-spacing: normal; text-align: left; text-indent: 0px; text-transform: none; word-spacing: 0px; font-family: helvetica; display: inline; float: none;&quot;&gt;数据&lt;/span&gt;" style="text;whiteSpace=wrap;html=1;fontSize=18;fillColor=none;fontColor=default;labelBackgroundColor=none;fontStyle=1" vertex="1" parent="1">
          <mxGeometry x="-316" y="282.51999999999987" width="40" height="75.5" as="geometry" />
        </mxCell>
        <mxCell id="73l6ZmAT1cNKYX8VZmuh-107" value="&lt;span style=&quot;text-align: right&quot;&gt;多源&lt;br&gt;&lt;/span&gt;&lt;span style=&quot;text-align: right&quot;&gt;公开&lt;br&gt;&lt;/span&gt;&lt;span style=&quot;text-align: right&quot;&gt;数据&lt;/span&gt;" style="text;whiteSpace=wrap;html=1;fontSize=18;fontStyle=1" vertex="1" parent="1">
          <mxGeometry x="-236" y="282.51999999999987" width="40" height="75.5" as="geometry" />
        </mxCell>
        <mxCell id="73l6ZmAT1cNKYX8VZmuh-108" value="&lt;span style=&quot;font-family: helvetica; font-size: 18px; font-style: normal; font-weight: 400; letter-spacing: normal; text-align: center; text-indent: 0px; text-transform: none; word-spacing: 0px; display: inline; float: none;&quot;&gt;公开报道&lt;/span&gt;" style="text;whiteSpace=wrap;html=1;fontSize=18;fillColor=none;fontColor=default;labelBackgroundColor=none;" vertex="1" parent="1">
          <mxGeometry x="-94.87999999999998" y="382.7700000000002" width="100" height="40" as="geometry" />
        </mxCell>
        <mxCell id="73l6ZmAT1cNKYX8VZmuh-109" value="&lt;span style=&quot;font-family: helvetica; font-size: 18px; font-style: normal; font-weight: 400; letter-spacing: normal; text-align: center; text-indent: 0px; text-transform: none; word-spacing: 0px; display: inline; float: none;&quot;&gt;网络&lt;br&gt;图片&lt;/span&gt;" style="text;whiteSpace=wrap;html=1;fontSize=18;fillColor=none;fontColor=default;labelBackgroundColor=none;" vertex="1" parent="1">
          <mxGeometry x="-8.360000000000003" y="567.3800000000003" width="54.36" height="34" as="geometry" />
        </mxCell>
        <mxCell id="73l6ZmAT1cNKYX8VZmuh-110" value="&lt;div style=&quot;text-align: center&quot;&gt;&lt;font face=&quot;helvetica&quot;&gt;……&lt;/font&gt;&lt;/div&gt;" style="text;whiteSpace=wrap;html=1;fontSize=18;" vertex="1" parent="1">
          <mxGeometry x="-336.13" y="806.8800000000003" width="48.75" height="40" as="geometry" />
        </mxCell>
        <mxCell id="73l6ZmAT1cNKYX8VZmuh-111" value="&lt;div style=&quot;text-align: center&quot;&gt;&lt;font face=&quot;helvetica&quot;&gt;……&lt;/font&gt;&lt;/div&gt;" style="text;whiteSpace=wrap;html=1;fontSize=18;" vertex="1" parent="1">
          <mxGeometry x="-227.13" y="806.8800000000003" width="49.75" height="40" as="geometry" />
        </mxCell>
        <mxCell id="73l6ZmAT1cNKYX8VZmuh-112" value="&lt;span style=&quot;color: rgb(0 , 0 , 0) ; font-family: &amp;#34;helvetica&amp;#34; ; font-size: 18px ; font-style: normal ; font-weight: 400 ; letter-spacing: normal ; text-align: center ; text-indent: 0px ; text-transform: none ; word-spacing: 0px ; display: inline ; float: none&quot;&gt;Geo-文本&lt;/span&gt;" style="text;whiteSpace=wrap;html=1;fontSize=18;labelBackgroundColor=none;" vertex="1" parent="1">
          <mxGeometry x="-361.88" y="396.8800000000001" width="90" height="40" as="geometry" />
        </mxCell>
        <mxCell id="73l6ZmAT1cNKYX8VZmuh-113" value="&lt;div style=&quot;text-align: center&quot;&gt;&lt;span&gt;&lt;font face=&quot;helvetica&quot;&gt;Geo-模型&lt;/font&gt;&lt;/span&gt;&lt;/div&gt;" style="text;whiteSpace=wrap;html=1;fontSize=18;" vertex="1" parent="1">
          <mxGeometry x="-365.43999999999994" y="744.6300000000003" width="79.5" height="40" as="geometry" />
        </mxCell>
        <mxCell id="73l6ZmAT1cNKYX8VZmuh-114" value="&lt;span style=&quot;color: rgb(0, 0, 0); font-family: helvetica; font-size: 18px; font-style: normal; font-weight: 400; letter-spacing: normal; text-align: center; text-indent: 0px; text-transform: none; word-spacing: 0px; display: inline; float: none;&quot;&gt;网络视频&lt;/span&gt;" style="text;whiteSpace=wrap;html=1;fontSize=18;labelBackgroundColor=none;" vertex="1" parent="1">
          <mxGeometry x="-130.7700000000001" y="784.6300000000003" width="83.39" height="40" as="geometry" />
        </mxCell>
        <mxCell id="73l6ZmAT1cNKYX8VZmuh-115" value="&lt;span style=&quot;color: rgb(0, 0, 0); font-family: helvetica; font-size: 18px; font-style: normal; font-weight: 400; letter-spacing: normal; text-align: center; text-indent: 0px; text-transform: none; word-spacing: 0px; display: inline; float: none;&quot;&gt;街景影像&lt;/span&gt;" style="text;whiteSpace=wrap;html=1;fontSize=18;labelBackgroundColor=none;fillColor=none;" vertex="1" parent="1">
          <mxGeometry x="-530.63" y="705.3800000000003" width="78" height="27.64" as="geometry" />
        </mxCell>
        <mxCell id="73l6ZmAT1cNKYX8VZmuh-116" value="&lt;span style=&quot;color: rgb(0 , 0 , 0) ; font-family: &amp;#34;helvetica&amp;#34; ; font-size: 18px ; font-style: normal ; font-weight: 400 ; letter-spacing: normal ; text-align: center ; text-indent: 0px ; text-transform: none ; word-spacing: 0px ; display: inline ; float: none&quot;&gt;Geo-图像&lt;/span&gt;" style="text;whiteSpace=wrap;html=1;fontSize=18;labelBackgroundColor=none;" vertex="1" parent="1">
          <mxGeometry x="-486.81" y="572.2700000000002" width="80" height="33.5" as="geometry" />
        </mxCell>
        <mxCell id="73l6ZmAT1cNKYX8VZmuh-117" value="&lt;span style=&quot;color: rgb(0, 0, 0); font-family: helvetica; font-size: 18px; font-style: normal; font-weight: 400; letter-spacing: normal; text-indent: 0px; text-transform: none; word-spacing: 0px; display: inline; float: none;&quot;&gt;点云&lt;/span&gt;" style="text;whiteSpace=wrap;html=1;fontSize=18;align=center;labelBackgroundColor=none;" vertex="1" parent="1">
          <mxGeometry x="-385.2" y="629.8800000000003" width="40" height="30" as="geometry" />
        </mxCell>
        <mxCell id="73l6ZmAT1cNKYX8VZmuh-118" value="&lt;span style=&quot;font-family: helvetica;&quot;&gt;属性&lt;/span&gt;" style="text;whiteSpace=wrap;html=1;fontSize=18;align=center;labelBackgroundColor=none;" vertex="1" parent="1">
          <mxGeometry x="-391.94999999999993" y="518.5200000000002" width="53.5" height="26.5" as="geometry" />
        </mxCell>
        <mxCell id="73l6ZmAT1cNKYX8VZmuh-119" value="" style="endArrow=none;html=1;rounded=0;fontSize=18;entryX=0.5;entryY=0;entryDx=0;entryDy=0;" edge="1" parent="1" source="73l6ZmAT1cNKYX8VZmuh-93" target="73l6ZmAT1cNKYX8VZmuh-92">
          <mxGeometry width="50" height="50" relative="1" as="geometry">
            <mxPoint x="-137.38" y="561.3800000000003" as="sourcePoint" />
            <mxPoint x="-87.37999999999998" y="511.38000000000034" as="targetPoint" />
          </mxGeometry>
        </mxCell>
        <mxCell id="73l6ZmAT1cNKYX8VZmuh-120" value="" style="endArrow=none;html=1;rounded=0;fontSize=18;entryX=0.5;entryY=1;entryDx=0;entryDy=0;exitX=0.5;exitY=1;exitDx=0;exitDy=0;" edge="1" parent="1" source="73l6ZmAT1cNKYX8VZmuh-92" target="73l6ZmAT1cNKYX8VZmuh-93">
          <mxGeometry width="50" height="50" relative="1" as="geometry">
            <mxPoint x="-260.1029182243493" y="924.4235543194711" as="sourcePoint" />
            <mxPoint x="-262.15499999999986" y="831.3800000000008" as="targetPoint" />
          </mxGeometry>
        </mxCell>
        <mxCell id="73l6ZmAT1cNKYX8VZmuh-121" value="&lt;span style=&quot;color: rgb(0, 0, 0); font-family: helvetica; font-size: 18px; font-style: normal; font-weight: 400; letter-spacing: normal; text-align: center; text-indent: 0px; text-transform: none; word-spacing: 0px; display: inline; float: none;&quot;&gt;图像&lt;/span&gt;" style="text;whiteSpace=wrap;html=1;fontSize=18;labelBackgroundColor=none;" vertex="1" parent="1">
          <mxGeometry x="-87.73999999999988" y="588.1300000000003" width="40" height="33.5" as="geometry" />
        </mxCell>
        <mxCell id="73l6ZmAT1cNKYX8VZmuh-122" value="" style="endArrow=none;html=1;rounded=0;fontSize=18;entryX=0.5;entryY=0;entryDx=0;entryDy=0;exitX=0.5;exitY=0;exitDx=0;exitDy=0;" edge="1" parent="1" source="73l6ZmAT1cNKYX8VZmuh-94" target="73l6ZmAT1cNKYX8VZmuh-93">
          <mxGeometry width="50" height="50" relative="1" as="geometry">
            <mxPoint x="-245.12999999999977" y="368.0200000000002" as="sourcePoint" />
            <mxPoint x="-245.1249999999999" y="279.5000000000002" as="targetPoint" />
          </mxGeometry>
        </mxCell>
        <mxCell id="73l6ZmAT1cNKYX8VZmuh-123" value="" style="endArrow=none;html=1;rounded=0;fontSize=18;exitX=0.5;exitY=1;exitDx=0;exitDy=0;" edge="1" parent="1" source="73l6ZmAT1cNKYX8VZmuh-93" target="73l6ZmAT1cNKYX8VZmuh-94">
          <mxGeometry width="50" height="50" relative="1" as="geometry">
            <mxPoint x="-244.13" y="458.7404651162792" as="sourcePoint" />
            <mxPoint x="-245.12999999999977" y="368.0200000000002" as="targetPoint" />
          </mxGeometry>
        </mxCell>
        <mxCell id="73l6ZmAT1cNKYX8VZmuh-124" value="&lt;div style=&quot;text-align: center&quot;&gt;&lt;span&gt;&lt;font face=&quot;helvetica&quot;&gt;模型&lt;/font&gt;&lt;/span&gt;&lt;/div&gt;" style="text;whiteSpace=wrap;html=1;fontSize=18;" vertex="1" parent="1">
          <mxGeometry x="-227.13" y="744.6300000000003" width="49.75" height="40" as="geometry" />
        </mxCell>
        <mxCell id="73l6ZmAT1cNKYX8VZmuh-125" value="&lt;span style=&quot;color: rgb(0 , 0 , 0) ; font-family: &amp;#34;helvetica&amp;#34; ; font-size: 18px ; font-style: normal ; font-weight: 400 ; letter-spacing: normal ; text-align: center ; text-indent: 0px ; text-transform: none ; word-spacing: 0px ; display: inline ; float: none&quot;&gt;文本&lt;/span&gt;" style="text;whiteSpace=wrap;html=1;fontSize=18;labelBackgroundColor=none;" vertex="1" parent="1">
          <mxGeometry x="-213.13" y="402.24" width="45.75" height="29.14" as="geometry" />
        </mxCell>
        <mxCell id="73l6ZmAT1cNKYX8VZmuh-126" value="&lt;h1 style=&quot;font-size: 30px&quot;&gt;&lt;font style=&quot;font-size: 30px&quot;&gt;陈娟&lt;/font&gt;&lt;/h1&gt;&lt;h1 style=&quot;font-size: 30px&quot;&gt;&lt;font style=&quot;font-size: 30px&quot;&gt;Semetic extracting&lt;/font&gt;&lt;/h1&gt;" style="text;html=1;strokeColor=none;fillColor=none;spacing=5;spacingTop=-20;whiteSpace=wrap;overflow=hidden;rounded=0;fontSize=18;" vertex="1" parent="1">
          <mxGeometry x="219.76" y="855" width="300.24" height="120" as="geometry" />
        </mxCell>
        <mxCell id="73l6ZmAT1cNKYX8VZmuh-127" value="&lt;h1 style=&quot;font-size: 30px&quot;&gt;&lt;font style=&quot;font-size: 30px&quot;&gt;吴梦霖&lt;/font&gt;&lt;/h1&gt;&lt;h1 style=&quot;font-size: 30px&quot;&gt;&lt;font style=&quot;font-size: 30px&quot;&gt;Video spatial referencing&lt;/font&gt;&lt;/h1&gt;&lt;h1 style=&quot;font-size: 30px&quot;&gt;&lt;p&gt;&lt;br style=&quot;font-weight: 400&quot;&gt;&lt;/p&gt;&lt;/h1&gt;" style="text;html=1;strokeColor=none;fillColor=none;spacing=5;spacingTop=-20;whiteSpace=wrap;overflow=hidden;rounded=0;fontSize=18;" vertex="1" parent="1">
          <mxGeometry x="878.75" y="855" width="391.25" height="120" as="geometry" />
        </mxCell>
        <mxCell id="73l6ZmAT1cNKYX8VZmuh-128" value="" style="shape=flexArrow;endArrow=classic;html=1;rounded=0;fontSize=18;fillColor=default;strokeColor=none;gradientDirection=east;gradientColor=#3CE4BB;shadow=1;sketch=0;exitX=0.112;exitY=0.178;exitDx=0;exitDy=0;exitPerimeter=0;entryX=0.191;entryY=0.1;entryDx=0;entryDy=0;entryPerimeter=0;" edge="1" parent="1" source="73l6ZmAT1cNKYX8VZmuh-93" target="73l6ZmAT1cNKYX8VZmuh-96">
          <mxGeometry width="50" height="50" relative="1" as="geometry">
            <mxPoint x="-488.77" y="552.3800000000001" as="sourcePoint" />
            <mxPoint x="-311.74" y="515" as="targetPoint" />
          </mxGeometry>
        </mxCell>
        <mxCell id="73l6ZmAT1cNKYX8VZmuh-129" value="" style="shape=flexArrow;endArrow=classic;html=1;rounded=0;fontSize=18;fillColor=default;strokeColor=none;gradientDirection=west;gradientColor=#3CE4BB;shadow=1;sketch=0;entryX=0.816;entryY=0.109;entryDx=0;entryDy=0;entryPerimeter=0;" edge="1" parent="1" target="73l6ZmAT1cNKYX8VZmuh-96">
          <mxGeometry width="50" height="50" relative="1" as="geometry">
            <mxPoint x="-71.74" y="445" as="sourcePoint" />
            <mxPoint x="-211.74" y="515" as="targetPoint" />
          </mxGeometry>
        </mxCell>
        <mxCell id="73l6ZmAT1cNKYX8VZmuh-130" value="" style="shape=flexArrow;endArrow=classic;html=1;rounded=0;fontSize=18;fillColor=default;strokeColor=none;gradientDirection=east;gradientColor=#3CE4BB;shadow=1;sketch=0;exitX=0;exitY=1;exitDx=0;exitDy=0;entryX=0;entryY=1;entryDx=0;entryDy=0;" edge="1" parent="1" source="73l6ZmAT1cNKYX8VZmuh-93" target="73l6ZmAT1cNKYX8VZmuh-96">
          <mxGeometry width="50" height="50" relative="1" as="geometry">
            <mxPoint x="-259.74" y="825" as="sourcePoint" />
            <mxPoint x="-259.74" y="675" as="targetPoint" />
          </mxGeometry>
        </mxCell>
        <mxCell id="73l6ZmAT1cNKYX8VZmuh-131" value="" style="shape=flexArrow;endArrow=classic;html=1;rounded=0;fontSize=18;fillColor=default;strokeColor=none;gradientDirection=west;gradientColor=#3CE4BB;shadow=1;sketch=0;entryX=1;entryY=1;entryDx=0;entryDy=0;" edge="1" parent="1" source="73l6ZmAT1cNKYX8VZmuh-93" target="73l6ZmAT1cNKYX8VZmuh-96">
          <mxGeometry width="50" height="50" relative="1" as="geometry">
            <mxPoint x="-408.952499065299" y="763.5224990652996" as="sourcePoint" />
            <mxPoint x="-315.89093065035513" y="663.6409306503556" as="targetPoint" />
          </mxGeometry>
        </mxCell>
        <mxCell id="73l6ZmAT1cNKYX8VZmuh-132" value="&lt;h1 style=&quot;font-size: 30px&quot;&gt;总体科研目标&lt;/h1&gt;" style="text;html=1;strokeColor=none;fillColor=none;spacing=5;spacingTop=-20;whiteSpace=wrap;overflow=hidden;rounded=0;fontSize=18;" vertex="1" parent="1">
          <mxGeometry x="-353.13" y="915" width="211.72" height="60" as="geometry" />
        </mxCell>
        <mxCell id="73l6ZmAT1cNKYX8VZmuh-133" value="" style="curved=1;endArrow=classic;html=1;rounded=0;fontSize=18;entryX=0.5;entryY=1;entryDx=0;entryDy=0;strokeColor=#ff8987;endSize=0;startSize=0;strokeWidth=6;fillColor=#ff8987;exitX=0.75;exitY=0;exitDx=0;exitDy=0;opacity=70;" edge="1" parent="1" source="73l6ZmAT1cNKYX8VZmuh-50" target="73l6ZmAT1cNKYX8VZmuh-88">
          <mxGeometry width="50" height="50" relative="1" as="geometry">
            <mxPoint x="354" y="490" as="sourcePoint" />
            <mxPoint x="332" y="528" as="targetPoint" />
            <Array as="points" />
          </mxGeometry>
        </mxCell>
      </root>
    </mxGraphModel>
  </diagram>
</mxfile>
